# xmcd
# 
# Track frame offsets:
#     150
#     13042
#     16420
#     30132
#     48922
#     67817
#     84208
#     98070
#     115074
#     133120
#     150102
#     167561
#     184468
#     196523
#     225887
# 
# Disc length: 3573
# 
# Revision: 1
# Processed by: cddbd v1.5.2PL0 Copyright (c) Steve Scherf et al.
# Submitted via: BonkEnc v1.0rc1
# 
DISCID=990df30f
DTITLE=Neal McCoy - That's Life
DYEAR=2005
DGENRE=Country
TTITLE0=Got Mud
TTITLE1=Intro (General Tommy Franks)
TTITLE2=The Last Of A Dying Breed
TTITLE3=That's Life
TTITLE4=All Over Again
TTITLE5=Billy's Got His Beer Goggles On
TTITLE6=That's A Picture
TTITLE7=You Let Me Be The Hero
TTITLE8=Tailgate
TTITLE9=Tails I Lose
TTITLE10=Jessie
TTITLE11=You're My Jamaica (Duet With Charley Pride)
TTITLE12=Head South
TTITLE13=Hillbilly Rap (Live)
TTITLE14=Data
EXTD=
EXTT0=
EXTT1=
EXTT2=
EXTT3=
EXTT4=
EXTT5=
EXTT6=
EXTT7=
EXTT8=
EXTT9=
EXTT10=
EXTT11=
EXTT12=
EXTT13=
EXTT14=
PLAYORDER=
